HIERARCHY
ROOT Hips
{
	OFFSET 0.000000 83.214638 0.000000
	CHANNELS 6 Xposition Yposition Zposition Xrotation Yrotation Zrotation
	JOINT Pelvis
	{
		OFFSET 0.000000 0.000000 0.000000
		CHANNELS 3 Xrotation Yrotation Zrotation
		JOINT LeftUpLeg
		{
			OFFSET 8.479700 -4.795502 -0.379100
			CHANNELS 3 Xrotation Yrotation Zrotation
			JOINT LeftLeg
			{
				OFFSET 0.024144 -32.555107 0.112900
				CHANNELS 3 Xrotation Yrotation Zrotation
				JOINT LeftFoot
				{
					OFFSET -0.024144 -32.638630 -3.012600
					CHANNELS 3 Xrotation Yrotation Zrotation
					JOINT LeftToeBase
					{
						OFFSET 0.970200 -13.225400 11.864200
						CHANNELS 3 Xrotation Yrotation Zrotation
						End Site
						{
							OFFSET 0.000000 12.319262 0.000000
						}
					}
					JOINT LFootTongue
					{
						OFFSET 1.142400 -1.059800 6.665200
						CHANNELS 3 Xrotation Yrotation Zrotation
						End Site
						{
							OFFSET 0.000000 12.319262 0.000000
						}
					}
				}
				JOINT LeftPantLeg
				{
					OFFSET 0.918482 -16.533964 -2.284700
					CHANNELS 3 Xrotation Yrotation Zrotation
					End Site
					{
						OFFSET 0.350399 24.744368 0.000000
					}
				}
			}
		}
		JOINT RightUpLeg
		{
			OFFSET -8.479700 -4.795502 -0.379100
			CHANNELS 3 Xrotation Yrotation Zrotation
			JOINT RightLeg
			{
				OFFSET -0.023144 -32.555092 0.112900
				CHANNELS 3 Xrotation Yrotation Zrotation
				JOINT RightFoot
				{
					OFFSET 0.023144 -32.638641 -3.012700
					CHANNELS 3 Xrotation Yrotation Zrotation
					JOINT RightToeBase
					{
						OFFSET -0.970200 -13.225400 11.864200
						CHANNELS 3 Xrotation Yrotation Zrotation
						End Site
						{
							OFFSET 0.000000 12.319244 0.000000
						}
					}
					JOINT RFootTongue
					{
						OFFSET -1.142200 -1.059800 6.665200
						CHANNELS 3 Xrotation Yrotation Zrotation
						End Site
						{
							OFFSET 0.000000 12.319243 0.000000
						}
					}
				}
				JOINT RightPantLeg
				{
					OFFSET -0.919482 -16.533978 -2.284800
					CHANNELS 3 Xrotation Yrotation Zrotation
					End Site
					{
						OFFSET -0.350400 24.744419 0.000000
					}
				}
			}
		}
	}
	JOINT Spine
	{
		OFFSET 0.000000 7.722000 1.166200
		CHANNELS 3 Xrotation Yrotation Zrotation
		JOINT Spine1
		{
			OFFSET 0.000000 12.024101 0.248800
			CHANNELS 3 Xrotation Yrotation Zrotation
			JOINT Spine2
			{
				OFFSET 0.000000 11.502998 -0.491200
				CHANNELS 3 Xrotation Yrotation Zrotation
				JOINT Neck
				{
					OFFSET 0.000000 18.430702 -3.123100
					CHANNELS 3 Xrotation Yrotation Zrotation
					JOINT Head
					{
						OFFSET 0.000000 9.051102 1.034000
						CHANNELS 3 Xrotation Yrotation Zrotation
						JOINT HairB
						{
							OFFSET 0.208400 24.786102 24.822300
							CHANNELS 3 Xrotation Yrotation Zrotation
							End Site
							{
								OFFSET 0.000000 32.263779 0.000000
							}
						}
						JOINT HairA
						{
							OFFSET -7.081100 24.428299 23.196600
							CHANNELS 3 Xrotation Yrotation Zrotation
							End Site
							{
								OFFSET 0.000000 32.263779 0.000000
							}
						}
						JOINT Hat
						{
							OFFSET 16.728800 15.048294 -15.439601
							CHANNELS 3 Xrotation Yrotation Zrotation
							End Site
							{
								OFFSET 0.000000 32.263779 0.000000
							}
						}
					}
				}
				JOINT LeftShoulder
				{
					OFFSET 6.197800 13.665199 -4.064700
					CHANNELS 3 Xrotation Yrotation Zrotation
					JOINT LeftArm
					{
						OFFSET 7.778100 -0.187103 -1.709300
						CHANNELS 3 Xrotation Yrotation Zrotation
						JOINT LeftForeArm
						{
							OFFSET 22.049376 0.000000 0.000000
							CHANNELS 3 Xrotation Yrotation Zrotation
							JOINT LeftHand
							{
								OFFSET 23.009392 0.000000 0.000000
								CHANNELS 3 Xrotation Yrotation Zrotation
								JOINT LeftHandThumb1
								{
									OFFSET 3.507191 -2.063065 3.133727
									CHANNELS 3 Xrotation Yrotation Zrotation
									JOINT LeftHandThumb2
									{
										OFFSET 3.101337 -1.790558 1.790558
										CHANNELS 3 Xrotation Yrotation Zrotation
										JOINT LeftHandThumb3
										{
											OFFSET 3.058640 -1.765907 1.765906
											CHANNELS 3 Xrotation Yrotation Zrotation
											End Site
											{
												OFFSET -0.415260 3.926476 -0.049563
											}
										}
									}
								}
								JOINT LeftHandIndex1
								{
									OFFSET 11.334419 -0.901459 3.706815
									CHANNELS 3 Xrotation Yrotation Zrotation
									JOINT LeftHandIndex2
									{
										OFFSET 3.283112 0.000000 0.000000
										CHANNELS 3 Xrotation Yrotation Zrotation
										JOINT LeftHandIndex3
										{
											OFFSET 3.323853 0.000000 0.000000
											CHANNELS 3 Xrotation Yrotation Zrotation
											End Site
											{
												OFFSET -1.135597 3.097809 0.402452
											}
										}
									}
								}
								JOINT LeftHandMiddle1
								{
									OFFSET 11.335861 0.000000 0.000000
									CHANNELS 3 Xrotation Yrotation Zrotation
									JOINT LeftHandMiddle2
									{
										OFFSET 3.410492 0.000000 0.000000
										CHANNELS 3 Xrotation Yrotation Zrotation
										JOINT LeftHandMiddle3
										{
											OFFSET 3.312172 0.000000 0.000000
											CHANNELS 3 Xrotation Yrotation Zrotation
											End Site
											{
												OFFSET -1.150200 3.080154 0.400270
											}
										}
									}
								}
								JOINT LeftHandRing1
								{
									OFFSET 11.514786 -0.013176 -3.003090
									CHANNELS 3 Xrotation Yrotation Zrotation
									JOINT LeftHandRing2
									{
										OFFSET 3.053307 0.000000 0.000000
										CHANNELS 3 Xrotation Yrotation Zrotation
										JOINT LeftHandRing3
										{
											OFFSET 3.295807 0.000000 0.000000
											CHANNELS 3 Xrotation Yrotation Zrotation
											End Site
											{
												OFFSET -1.281006 3.013344 0.375733
											}
										}
									}
								}
								JOINT LeftHandPinky1
								{
									OFFSET 10.518692 -0.960396 -5.730441
									CHANNELS 3 Xrotation Yrotation Zrotation
									JOINT LeftHandPinky2
									{
										OFFSET 2.861649 0.000000 0.000000
										CHANNELS 3 Xrotation Yrotation Zrotation
										JOINT LeftHandPinky3
										{
											OFFSET 2.863380 0.000000 0.000000
											CHANNELS 3 Xrotation Yrotation Zrotation
											End Site
											{
												OFFSET -0.843597 2.711159 0.369971
											}
										}
									}
								}
							}
							JOINT LSleeve
							{
								OFFSET 6.676277 -0.344902 -1.011730
								CHANNELS 3 Xrotation Yrotation Zrotation
								End Site
								{
									OFFSET 0.000000 14.885353 0.000000
								}
							}
						}
					}
				}
				JOINT RightShoulder
				{
					OFFSET -6.197800 13.665199 -4.064700
					CHANNELS 3 Xrotation Yrotation Zrotation
					JOINT RightArm
					{
						OFFSET -7.778100 -0.187103 -1.709300
						CHANNELS 3 Xrotation Yrotation Zrotation
						JOINT RightForeArm
						{
							OFFSET -22.049376 0.000000 0.000000
							CHANNELS 3 Xrotation Yrotation Zrotation
							JOINT RightHand
							{
								OFFSET -23.009392 0.000000 0.000000
								CHANNELS 3 Xrotation Yrotation Zrotation
								JOINT RightHandThumb1
								{
									OFFSET -3.507191 -2.063065 3.133727
									CHANNELS 3 Xrotation Yrotation Zrotation
									JOINT RightHandThumb2
									{
										OFFSET -3.101337 -1.790558 1.790558
										CHANNELS 3 Xrotation Yrotation Zrotation
										JOINT RightHandThumb3
										{
											OFFSET -3.058640 -1.765907 1.765906
											CHANNELS 3 Xrotation Yrotation Zrotation
											End Site
											{
												OFFSET 0.415260 3.926476 -0.049563
											}
										}
									}
								}
								JOINT RightHandIndex1
								{
									OFFSET -11.334419 -0.901459 3.706815
									CHANNELS 3 Xrotation Yrotation Zrotation
									JOINT RightHandIndex2
									{
										OFFSET -3.283112 0.000000 0.000000
										CHANNELS 3 Xrotation Yrotation Zrotation
										JOINT RightHandIndex3
										{
											OFFSET -3.323853 0.000000 0.000000
											CHANNELS 3 Xrotation Yrotation Zrotation
											End Site
											{
												OFFSET 1.135597 3.097809 0.402452
											}
										}
									}
								}
								JOINT RightHandMiddle1
								{
									OFFSET -11.335861 0.000000 0.000000
									CHANNELS 3 Xrotation Yrotation Zrotation
									JOINT RightHandMiddle2
									{
										OFFSET -3.410492 0.000000 0.000000
										CHANNELS 3 Xrotation Yrotation Zrotation
										JOINT RightHandMiddle3
										{
											OFFSET -3.312172 0.000000 0.000000
											CHANNELS 3 Xrotation Yrotation Zrotation
											End Site
											{
												OFFSET 1.150200 3.080154 0.400270
											}
										}
									}
								}
								JOINT RightHandRing1
								{
									OFFSET -11.514786 -0.013176 -3.003090
									CHANNELS 3 Xrotation Yrotation Zrotation
									JOINT RightHandRing2
									{
										OFFSET -3.053307 0.000000 0.000000
										CHANNELS 3 Xrotation Yrotation Zrotation
										JOINT RightHandRing3
										{
											OFFSET -3.295807 0.000000 0.000000
											CHANNELS 3 Xrotation Yrotation Zrotation
											End Site
											{
												OFFSET 1.281006 3.013344 0.375733
											}
										}
									}
								}
								JOINT RightHandPinky1
								{
									OFFSET -10.518692 -0.960396 -5.730441
									CHANNELS 3 Xrotation Yrotation Zrotation
									JOINT RightHandPinky2
									{
										OFFSET -2.861649 0.000000 0.000000
										CHANNELS 3 Xrotation Yrotation Zrotation
										JOINT RightHandPinky3
										{
											OFFSET -2.863380 0.000000 0.000000
											CHANNELS 3 Xrotation Yrotation Zrotation
											End Site
											{
												OFFSET 0.843597 2.711159 0.369971
											}
										}
									}
								}
							}
							JOINT RSleeve
							{
								OFFSET -6.676277 -0.344902 -1.011730
								CHANNELS 3 Xrotation Yrotation Zrotation
								End Site
								{
									OFFSET 0.000000 14.885353 0.000000
								}
							}
						}
					}
				}
				JOINT Backpack
				{
					OFFSET 0.000000 -2.471497 36.677502
					CHANNELS 3 Xrotation Yrotation Zrotation
					End Site
					{
						OFFSET 0.000000 20.427315 0.000000
					}
				}
				JOINT Hood
				{
					OFFSET 0.000000 18.754097 -10.431000
					CHANNELS 3 Xrotation Yrotation Zrotation
					JOINT Hood1
					{
						OFFSET 0.000000 -5.011002 -7.685901
						CHANNELS 3 Xrotation Yrotation Zrotation
						End Site
						{
							OFFSET 0.000000 9.175140 0.000000
						}
					}
				}
				JOINT LHoodieString
				{
					OFFSET 5.250500 16.397697 3.089900
					CHANNELS 3 Xrotation Yrotation Zrotation
					JOINT LHoodieString1
					{
						OFFSET 0.257700 -6.364304 3.694600
						CHANNELS 3 Xrotation Yrotation Zrotation
						JOINT LHoodieString2
						{
							OFFSET 0.000000 -9.643799 2.679100
							CHANNELS 3 Xrotation Yrotation Zrotation
							End Site
							{
								OFFSET 0.000000 10.009018 0.000000
							}
						}
					}
				}
				JOINT RHoodieString
				{
					OFFSET -5.250500 16.397697 3.089900
					CHANNELS 3 Xrotation Yrotation Zrotation
					JOINT RHoodieString1
					{
						OFFSET -0.257700 -6.364304 3.694600
						CHANNELS 3 Xrotation Yrotation Zrotation
						JOINT RHoodieString2
						{
							OFFSET 0.000000 -9.643799 2.679100
							CHANNELS 3 Xrotation Yrotation Zrotation
							End Site
							{
								OFFSET 0.000000 10.009018 0.000000
							}
						}
					}
				}
			}
			JOINT LBackpack_Strap
			{
				OFFSET 15.223200 -7.719803 -6.610900
				CHANNELS 3 Xrotation Yrotation Zrotation
				End Site
				{
					OFFSET 0.000000 16.040596 0.000000
				}
			}
			JOINT RBackpack_Strap
			{
				OFFSET -15.223000 -7.719803 -6.610900
				CHANNELS 3 Xrotation Yrotation Zrotation
				End Site
				{
					OFFSET 0.000000 16.040596 0.000000
				}
			}
		}
	}
	JOINT BoyFacialAnim_Joint
	{
		OFFSET 1.000000 -82.208099 -1.550900
		CHANNELS 3 Xrotation Yrotation Zrotation
		End Site
		{
			OFFSET 0.000000 30.012791 0.000000
		}
	}
}
MOTION
Frames: 4
Frame Time: 0.033333
0.528936 77.585739 -0.162988 3.865461 55.214956 -5.837848 0.000000 0.000003 -0.000000 -23.012859 13.125887 22.687894 38.032969 -7.536482 -2.711322 -18.265715 0.915992 -9.176721 -0.000000 0.000001 -0.000000 -0.000000 0.000001 -0.000000 -0.000000 -0.000003 0.000001 -15.596040 -14.624444 -21.604628 11.377366 -4.076250 -3.189085 6.187649 0.152972 23.101699 0.000000 -0.000003 -0.000000 0.000000 -0.000003 -0.000000 0.000002 0.000000 0.000000 0.256061 0.847744 -2.179367 0.011936 0.646867 -1.457359 0.006579 0.633953 -1.463735 -0.146575 -9.600370 2.868396 18.402715 -43.388302 20.657948 -0.000000 -0.000000 -0.000000 -0.000000 -0.000000 -0.000000 -0.000000 -0.000000 -0.000000 2.518747 -6.519274 -10.287493 -2.956988 10.501352 -53.176318 -0.000010 -31.661345 -0.000006 14.508722 13.509003 -17.347188 4.058523 30.384462 2.638389 3.939056 7.948708 0.746817 0.000001 -0.000003 -0.000004 0.496444 2.571607 -21.849280 0.537651 2.672015 -22.750389 -0.000004 0.000000 0.000002 0.000008 -0.001918 0.015966 -0.000004 0.001924 -0.015975 -0.000001 -0.000001 0.000002 0.000012 -0.000001 -0.000001 -0.000015 0.000001 -0.000009 -0.000000 -0.000002 -0.000001 1.996639 6.340044 -21.455501 0.542959 -1.386952 -23.222268 -0.000001 0.000002 0.000002 0.000001 0.000001 -0.000000 3.071931 9.494196 8.025445 0.661364 8.979528 64.110799 0.000004 25.199918 0.000003 15.739997 -17.684926 18.679987 0.990126 -12.159367 -13.110950 4.637194 -8.634135 -0.225414 -0.000000 0.000003 0.000001 0.222829 -1.749652 14.516179 0.000005 0.000001 0.000005 -0.000000 -0.000000 0.000002 0.000001 0.000002 0.000008 -0.000008 -0.000016 -0.000001 0.000001 0.000000 -0.000004 -0.000013 -0.000006 0.000007 0.000009 0.000011 0.000030 -0.000000 0.000000 0.000000 0.222828 -1.749652 14.516182 -0.000000 0.000003 -0.000005 -0.000002 0.000000 0.000000 -0.000000 0.000000 0.000002 0.000000 0.000001 0.000001 0.000000 0.000001 0.000001 0.000000 0.000001 0.000001 0.000000 0.000001 0.000001 0.000000 0.000001 0.000001 0.000000 0.000001 -0.000001 0.000000 0.000001 0.000001 0.000000 0.000001 0.000001 0.000000 0.000001 -0.000001 -0.000000 -0.000003 0.000000 -0.000000 -0.000003 0.000000 0.000000 0.000003 -0.000000 
0.638635 77.616608 -0.218447 4.001508 55.085291 -5.932622 0.000000 0.000003 0.000000 -22.936745 13.193096 22.590292 37.955443 -7.445453 -2.794457 -18.306358 1.039807 -9.074567 -0.000000 0.000003 -0.000000 -0.000000 0.000003 -0.000000 -0.000001 -0.000001 0.000002 -15.398202 -14.582012 -21.515424 10.754300 -4.262555 -3.340623 6.647510 0.239851 23.215642 0.000000 0.000001 -0.000000 0.000000 0.000001 -0.000000 0.000002 -0.000001 -0.000000 0.234768 0.883460 -2.216073 -0.011950 0.672868 -1.485490 -0.017429 0.659184 -1.492071 -0.203492 -9.600852 2.828994 18.367077 -43.432343 20.746942 -0.000000 -0.000000 0.000000 -0.000000 -0.000000 0.000000 -0.000000 -0.000000 0.000000 2.517490 -6.518996 -10.284745 -3.134854 10.753098 -53.212488 -0.000000 -31.282567 0.000001 14.784289 13.741746 -17.452323 4.058526 30.384452 2.638388 3.939054 7.948710 0.746816 -0.000003 -0.000000 -0.000001 0.496447 2.571603 -21.849280 0.537652 2.672016 -22.750383 -0.000001 -0.000001 -0.000002 0.000008 -0.001919 0.015966 -0.000004 0.001925 -0.015975 0.000002 0.000001 -0.000001 0.000010 -0.000003 -0.000003 -0.000016 0.000004 -0.000010 0.000003 -0.000000 -0.000000 1.996638 6.340043 -21.455502 0.542961 -1.386952 -23.222268 0.000004 0.000000 -0.000002 0.000000 -0.000000 -0.000002 3.074336 9.504767 8.034760 0.228453 8.664174 64.339180 -0.000008 24.847600 0.000005 16.470351 -17.436093 19.205652 1.061005 -12.046055 -13.120262 4.637197 -8.634131 -0.225412 0.000002 0.000000 -0.000001 0.220742 -1.741500 14.447028 0.000003 0.000004 0.000018 0.000001 0.000000 0.000002 0.000002 0.000002 0.000012 -0.000007 -0.000016 0.000003 -0.000000 0.000000 -0.000000 -0.000013 -0.000005 0.000008 0.000010 0.000011 0.000030 -0.000000 0.000000 0.000004 0.220748 -1.741489 14.447025 -0.000009 -0.000004 -0.000006 -0.000000 -0.000001 -0.000000 0.000000 -0.000001 -0.000002 -0.000000 0.000002 0.000000 -0.000000 0.000002 0.000000 -0.000000 0.000002 0.000000 -0.000000 0.000002 0.000000 -0.000000 0.000002 0.000001 -0.000000 -0.000001 0.000000 -0.000000 0.000002 0.000000 -0.000000 0.000002 0.000001 -0.000000 -0.000001 0.000000 -0.000000 0.000001 0.000000 -0.000000 0.000001 0.000000 0.000000 0.000003 0.000000 
0.744604 77.646202 -0.271928 4.129294 54.960476 -6.020845 -0.000000 -0.000002 -0.000000 -22.863930 13.257143 22.496659 37.880359 -7.359882 -2.874050 -18.342985 1.159024 -8.976487 0.000000 0.000001 0.000000 0.000000 0.000001 -0.000000 -0.000000 -0.000000 -0.000001 -15.201173 -14.542079 -21.429865 10.141213 -4.443783 -3.489075 7.106936 0.326875 23.325202 0.000000 -0.000000 -0.000000 0.000000 -0.000000 -0.000000 -0.000001 -0.000002 0.000003 0.214446 0.916577 -2.251012 -0.034697 0.696973 -1.512436 -0.040274 0.682562 -1.519203 -0.259242 -9.600802 2.788156 18.329052 -43.476483 20.830766 -0.000000 -0.000000 -0.000000 -0.000000 -0.000000 -0.000000 -0.000000 -0.000000 -0.000000 2.516659 -6.517842 -10.283531 -3.308375 10.995833 -53.245614 0.000008 -30.917620 0.000001 15.046647 13.958806 -17.562214 4.058524 30.384459 2.638392 3.939054 7.948714 0.746815 0.000001 -0.000001 -0.000003 0.496446 2.571604 -21.849277 0.537652 2.672016 -22.750385 -0.000003 0.000000 -0.000007 0.000005 -0.001921 0.015964 -0.000006 0.001922 -0.015973 -0.000002 -0.000002 0.000002 0.000004 -0.000003 0.000001 -0.000010 0.000001 -0.000007 -0.000001 0.000001 -0.000005 1.996636 6.340043 -21.455499 0.542961 -1.386955 -23.222269 -0.000001 0.000001 -0.000000 0.000001 -0.000000 0.000000 3.076459 9.514353 8.038334 -0.187678 8.358759 64.559160 -0.000007 24.503328 0.000013 17.126901 -17.201037 19.713657 1.266396 -11.719147 -13.147867 4.637194 -8.634129 -0.225413 0.000001 0.000003 0.000002 0.214777 -1.718174 14.249254 -0.000001 0.000005 0.000029 0.000001 0.000000 0.000000 0.000001 0.000001 0.000009 -0.000009 -0.000016 0.000004 0.000000 0.000001 -0.000002 -0.000012 -0.000006 0.000007 0.000010 0.000012 0.000032 -0.000001 0.000000 0.000002 0.214782 -1.718159 14.249250 0.000004 0.000007 -0.000004 -0.000000 0.000001 -0.000001 0.000000 0.000001 -0.000001 -0.000000 -0.000001 -0.000000 -0.000000 -0.000001 -0.000000 -0.000000 -0.000001 -0.000000 -0.000000 -0.000001 -0.000000 -0.000000 -0.000001 -0.000000 -0.000000 -0.000001 0.000000 -0.000000 -0.000001 -0.000000 -0.000000 -0.000001 -0.000000 -0.000000 -0.000001 0.000000 -0.000000 0.000000 -0.000001 -0.000000 0.000000 -0.000001 -0.000000 -0.000002 -0.000000 
0.846697 77.674301 -0.323479 4.248402 54.840815 -6.102424 -0.000000 0.000001 -0.000000 -22.792765 13.318904 22.406280 37.808820 -7.279976 -2.949735 -18.378419 1.273320 -8.881871 -0.000000 -0.000002 0.000000 -0.000000 -0.000002 0.000000 -0.000000 0.000002 -0.000000 -15.006848 -14.504428 -21.347282 9.540489 -4.618904 -3.633929 7.562328 0.413323 23.428927 0.000000 -0.000004 0.000000 0.000000 -0.000004 0.000000 0.000000 -0.000001 0.000001 0.195233 0.947131 -2.283945 -0.056169 0.719177 -1.538055 -0.061823 0.704081 -1.544992 -0.313419 -9.600222 2.746029 18.288637 -43.520910 20.909359 -0.000000 -0.000000 -0.000000 -0.000000 -0.000000 -0.000000 -0.000000 -0.000000 -0.000000 2.516269 -6.515848 -10.283871 -3.478028 11.230891 -53.276555 0.000024 -30.565291 0.000028 15.295181 14.160221 -17.675135 4.058525 30.384455 2.638389 3.939052 7.948711 0.746820 -0.000002 0.000002 0.000001 0.496442 2.571602 -21.849275 0.537653 2.672015 -22.750385 -0.000002 0.000001 -0.000000 0.000003 -0.001919 0.015963 -0.000003 0.001924 -0.015973 -0.000003 -0.000001 0.000002 0.000004 -0.000002 -0.000004 -0.000013 0.000001 -0.000011 0.000004 0.000000 -0.000004 1.996635 6.340045 -21.455501 0.542963 -1.386953 -23.222266 -0.000004 -0.000000 -0.000004 -0.000002 0.000002 -0.000001 3.078355 9.523254 8.036045 -0.586021 8.065029 64.770349 0.000002 24.168145 -0.000004 17.711384 -16.981998 20.201336 1.596702 -11.197957 -13.194331 4.637196 -8.634135 -0.225414 0.000000 0.000000 -0.000002 0.205500 -1.681302 13.937077 -0.000016 0.000018 0.000003 -0.000000 0.000001 0.000002 -0.000000 0.000001 0.000010 -0.000008 -0.000016 0.000003 0.000001 0.000001 0.000002 -0.000014 -0.000005 0.000005 0.000010 0.000011 0.000030 0.000001 -0.000000 0.000002 0.205489 -1.681291 13.937075 0.000002 0.000011 -0.000002 -0.000001 -0.000001 0.000000 0.000000 -0.000002 -0.000002 -0.000000 -0.000001 -0.000000 -0.000000 -0.000001 -0.000000 -0.000000 -0.000001 -0.000000 -0.000000 -0.000001 -0.000000 -0.000000 -0.000001 0.000001 0.000000 -0.000001 -0.000000 -0.000000 -0.000001 -0.000000 -0.000000 -0.000001 0.000001 0.000000 -0.000001 -0.000000 -0.000000 0.000001 0.000000 -0.000000 0.000001 0.000000 -0.000000 0.000001 -0.000000 
